<?xml version="1.0" encoding="UTF-8" standalone="no"?>
<svg
   xmlns:dc="http://purl.org/dc/elements/1.1/"
   xmlns:cc="http://creativecommons.org/ns#"
   xmlns:rdf="http://www.w3.org/1999/02/22-rdf-syntax-ns#"
   xmlns:svg="http://www.w3.org/2000/svg"
   xmlns="http://www.w3.org/2000/svg"
   xmlns:sodipodi="http://sodipodi.sourceforge.net/DTD/sodipodi-0.dtd"
   xmlns:inkscape="http://www.inkscape.org/namespaces/inkscape"
   width="24"
   height="24"
   viewBox="0 0 24 24"
   version="1.1"
   id="svg6"
   sodipodi:docname="toy_chest.svg"
   inkscape:version="0.92.3 (2405546, 2018-03-11)">
  <metadata
     id="metadata12">
    <rdf:RDF>
      <cc:Work
         rdf:about="">
        <dc:format>image/svg+xml</dc:format>
        <dc:type
           rdf:resource="http://purl.org/dc/dcmitype/StillImage" />
        <dc:title />
      </cc:Work>
    </rdf:RDF>
  </metadata>
  <defs
     id="defs10" />
  <sodipodi:namedview
     pagecolor="#ffffff"
     bordercolor="#666666"
     borderopacity="1"
     objecttolerance="10"
     gridtolerance="10"
     guidetolerance="10"
     inkscape:pageopacity="0"
     inkscape:pageshadow="2"
     inkscape:window-width="1920"
     inkscape:window-height="1057"
     id="namedview8"
     showgrid="false"
     inkscape:zoom="6.9532167"
     inkscape:cx="25.643498"
     inkscape:cy="6.3243045"
     inkscape:window-x="-8"
     inkscape:window-y="-8"
     inkscape:window-maximized="1"
     inkscape:current-layer="layer2" />
  <path
     d="M0 0h24v24H0z"
     fill="none"
     id="path2" />
  <g
     inkscape:groupmode="layer"
     id="layer2"
     inkscape:label="icon"
     style="display:inline">
    <path
       style="fill:#000000;fill-opacity:1;stroke:none;stroke-width:1.03726602;stroke-linejoin:bevel;stroke-miterlimit:4;stroke-dasharray:3.111798, 3.111798;stroke-dashoffset:1.20000005;stroke-opacity:1"
       d="m 21.076271,11.816015 v 7.416361 c 0,1.091942 -0.973835,1.971014 -2.183487,1.971014 H 5.1072149 c -1.2096513,0 -2.1834862,-0.879072 -2.1834862,-1.971014 v -7.416361 z"
       id="rect3244"
       inkscape:connector-curvature="0"
       sodipodi:nodetypes="csssscc" />
    <path
       style="fill:#000000;fill-opacity:1;stroke:none;stroke-width:1px;stroke-linecap:butt;stroke-linejoin:miter;stroke-opacity:1"
       d="M 6.6512842,3.9667969 C 4.2199899,4.6404469 3.0263357,7.1682184 2.991128,10.677734 H 21.008872 C 20.973664,7.1682184 19.778057,4.6404469 17.346763,3.9667969 Z"
       id="path3795"
       inkscape:connector-curvature="0"
       sodipodi:nodetypes="ccccc" />
    <rect
       style="fill:#ffffff;fill-opacity:1;stroke:none;stroke-width:1.01020432;stroke-linejoin:bevel;stroke-miterlimit:4;stroke-dasharray:3.03061303, 3.03061303;stroke-dashoffset:1.20000005;stroke-opacity:1"
       id="rect3828"
       width="15.177966"
       height="0.91525418"
       x="4.4110169"
       y="9.0508471" />
    <g
       transform="matrix(0.00941867,0,0,0.00941867,7.2336815,11.588475)"
       id="g12"
       style="fill:#ffffff">
      <g
         transform="matrix(0.1,0,0,-0.1,0,511)"
         id="g10"
         style="fill:#ffffff">
        <path
           inkscape:connector-curvature="0"
           d="m 5718.3,3719.6 c -139.8,-40.2 -162.8,-78.5 -162.8,-281.5 0,-204.9 -23,-239.4 -210.7,-304.5 -69,-23 -174.3,-68.9 -233.6,-97.7 -61.3,-30.6 -122.6,-55.5 -139.8,-55.5 -17.2,0 -90,55.5 -162.8,124.5 -158.9,149.4 -206.8,164.7 -319.8,105.3 -114.9,-61.3 -327.5,-260.5 -417.5,-392.6 -111.1,-158.9 -103.4,-208.7 55.5,-373.4 74.7,-76.6 126.4,-147.5 126.4,-170.4 0,-23 -21.1,-82.4 -46,-132.1 -24.9,-49.8 -68.9,-155.1 -95.8,-233.6 -74.7,-204.9 -80.4,-210.7 -277.7,-210.7 -176.2,0 -273.9,-36.4 -296.8,-109.2 -76.6,-264.3 -57.5,-677.9 36.4,-787.1 42.1,-47.9 55.5,-51.7 233.6,-57.5 214.5,-7.7 243.2,-23 275.8,-145.5 11.5,-44.1 53.6,-151.3 95.8,-239.4 40.2,-88.1 74.7,-178.1 74.7,-199.2 0,-23 -53.6,-95.8 -124.5,-168.5 -109.2,-113 -124.5,-137.9 -124.5,-203 0,-91.9 57.5,-181.9 227.9,-356.2 155.1,-159 281.5,-243.2 363.9,-243.2 51.7,0 88.1,23 189.6,120.6 70.9,67 143.6,128.3 160.9,134.1 19.2,5.8 101.5,-19.2 191.5,-61.3 88.1,-40.2 204.9,-88.1 258.5,-105.3 137.9,-46 158.9,-80.4 158.9,-275.8 0,-178.1 15.3,-220.2 93.8,-262.4 88.1,-44 363.9,-68.9 540.1,-45.9 277.7,34.5 304.5,61.3 304.5,304.5 0,201.1 17.2,229.8 176.2,287.3 67,23 181.9,72.8 258.5,107.3 82.3,40.2 151.3,59.4 172.4,51.7 19.2,-5.7 91.9,-67 162.8,-134.1 141.7,-136 178.1,-145.5 308.3,-80.4 111.1,57.5 398.3,350.5 452,461.5 38.3,82.3 40.2,93.8 15.3,153.2 -15.3,34.5 -76.6,111.1 -136,168.5 -65.1,61.3 -107.2,120.6 -107.2,145.5 0,23 28.7,103.4 65.1,181.9 36.4,78.5 80.4,185.8 97.7,241.3 46,143.6 65.1,155.1 283.4,162.8 176.2,5.7 191.5,9.6 231.7,55.5 88.1,101.5 113,547.7 46,758.4 -34.5,103.4 -114.9,139.8 -312.2,139.8 -84.3,0 -164.7,7.7 -178.1,17.2 -13.4,7.7 -53.6,91.9 -88.1,185.8 -34.5,93.8 -82.3,206.8 -105.3,250.9 -21.1,44 -40.2,99.6 -40.2,120.7 0,23 53.6,97.7 124.5,172.4 155.1,164.7 162.8,214.5 49.8,381.1 -88.1,128.3 -273.8,304.5 -396.4,377.3 -120.7,70.8 -176.2,55.5 -335.1,-97.7 -70.9,-68.9 -141.7,-124.5 -159,-124.5 -17.2,0 -80.4,24.9 -141.7,55.5 -59.4,28.7 -164.7,74.7 -233.6,97.7 -185.8,65.1 -210.7,99.6 -210.7,298.8 0,189.6 -17.2,229.8 -111.1,270 -99.6,42 -534.3,53.5 -664.5,17.1 z M 6310,2260.3 c 266.2,-65.1 557.3,-298.8 676,-545.8 C 7200.5,1277.9 7125.8,795.3 6792.6,460.1 6453.6,119.2 5988.3,36.9 5557.4,241.8 4891,559.7 4732,1444.4 5249.1,1967.3 c 289.2,293 651.1,392.6 1060.9,293 z"
           id="path4"
           style="fill:#ffffff" />
        <path
           inkscape:connector-curvature="0"
           d="m 1880.4,1159.1 c -149.4,-17.2 -379.2,-74.7 -490.3,-120.7 -34.5,-15.3 -78.5,-49.8 -97.7,-78.5 -30.6,-46 -30.6,-63.2 -9.6,-172.4 13.4,-67 19.2,-139.8 11.5,-160.9 C 1288.6,605.5 1212,532.8 1125.8,465.7 1039.6,396.8 924.7,293.3 871.1,234 760,115.3 721.7,103.8 576.2,155.5 532.2,170.8 476.6,184.2 453.6,184.2 354,184.2 223.8,-47.5 143.4,-369.2 66.8,-667.9 80.2,-710 275.6,-784.7 c 111.1,-42.1 136,-61.3 158.9,-114.9 15.3,-34.5 26.8,-93.8 26.8,-130.2 0,-80.4 44,-298.8 84.3,-411.7 40.2,-109.2 26.8,-151.3 -86.2,-262.4 -130.2,-126.4 -128.3,-181.9 5.8,-373.4 124.5,-176.2 363.9,-411.7 448.1,-438.6 70.9,-24.9 141.7,1.9 208.7,76.6 21.1,24.9 67,55.5 101.5,70.9 57.5,23 70.9,23 153.2,-15.3 139.8,-63.2 339,-128.3 434.7,-143.6 126.4,-17.2 162.8,-55.5 199.2,-210.7 28.7,-118.8 40.2,-136 97.7,-166.6 51.7,-24.9 93.8,-30.7 181.9,-21.1 296.8,28.7 572.6,105.3 653,181.9 49.8,46 57.5,109.2 28.7,233.6 -24.9,107.3 5.7,176.2 111.1,247.1 47.9,34.5 164.7,134.1 256.6,222.1 185.8,178.1 178.1,176.2 383,116.8 80.4,-23 99.6,-21.1 143.6,3.8 97.7,53.6 262.4,457.7 285.4,700.9 15.3,155.1 -11.5,197.2 -153.2,241.3 -145.6,46 -174.3,88.1 -201.1,296.8 -13.4,95.8 -40.2,227.9 -61.3,294.9 -59.4,187.7 -53.6,218.3 61.3,329.4 84.3,80.4 101.5,107.2 99.6,164.7 0,157 -406,616.7 -584.1,660.7 -40.2,9.6 -70.8,-5.7 -160.9,-78.5 -134.1,-109.2 -174.3,-113 -360,-28.7 -70.9,32.6 -199.2,76.6 -287.3,97.7 -183.9,44 -233.6,88.1 -254.7,222.1 -24.8,170.5 -107.1,210.8 -369.5,178.2 z M 2412.8,13.9 c 379.2,-118.7 653.1,-492.2 653.1,-890.5 0,-249 -99.6,-488.3 -273.9,-662.6 -488.3,-488.3 -1309.9,-300.7 -1547.4,356.2 -59.4,158.9 -59.4,450 0,609 103.4,289.1 329.4,503.6 624.4,597.5 120.6,38.3 407.9,32.5 543.8,-9.6 z"
           id="path6"
           style="fill:#ffffff" />
        <path
           inkscape:connector-curvature="0"
           d="m 8278.7,-430.4 c -176.2,-17.2 -214.5,-47.9 -214.5,-168.5 0,-114.9 -34.5,-160.9 -162.8,-220.2 -59.4,-26.8 -157,-82.4 -216.4,-126.4 -61.3,-42.1 -118.7,-76.6 -128.3,-76.6 -9.6,0 -65.1,23 -120.6,51.7 -95.8,47.9 -107.3,49.8 -153.2,23 -113,-63.2 -346.6,-484.5 -319.8,-574.5 5.7,-19.2 53.6,-65.1 105.3,-101.5 l 95.8,-69 v -283.4 c 0,-312.2 1.9,-310.2 -126.4,-373.4 -86.2,-44 -93.8,-103.4 -36.4,-247.1 63.2,-155.1 218.3,-381.1 283.4,-413.7 44,-21.1 61.3,-19.2 145.6,24.9 53.6,26.8 107.2,47.9 118.7,47.9 13.4,0 76.6,-34.5 139.8,-74.7 65.1,-42.1 164.7,-99.6 226,-128.3 120.6,-59.4 149.4,-101.5 149.4,-227.9 0,-136 42.1,-153.2 379.2,-153.2 h 275.8 l 45.9,53.6 c 34.5,40.2 46,76.6 46,145.6 0,103.4 23,134.1 141.7,181.9 40.2,17.2 132.1,68.9 203,116.8 70.9,47.9 139.8,86.2 151.3,86.2 11.5,0 65.1,-21.1 118.7,-47.9 57.5,-30.6 111.1,-44 134.1,-38.3 55.5,19.2 178.1,181.9 266.2,356.2 107.2,216.4 101.5,254.7 -42.1,340.9 -38.3,23 -74.7,57.5 -78.5,74.7 -5.7,17.2 -7.7,153.2 -5.7,300.7 l 1.9,266.2 67,42.1 c 164.7,105.3 166.6,128.3 46,371.5 -88.1,176.2 -224.1,344.7 -279.6,344.7 -17.2,0 -68.9,-23 -118.7,-49.8 -101.5,-57.5 -130.2,-51.7 -260.4,42.1 -47.9,34.5 -132.1,84.3 -187.7,109.2 -147.5,69 -157,80.4 -157,197.3 0,158.9 -32.6,180 -325.6,206.8 -36.6,3.8 -130.4,0 -207.1,-9.6 z m 465.4,-911.6 c 139.8,-72.8 256.6,-189.6 329.4,-331.3 47.9,-95.8 53.6,-124.5 53.6,-296.8 0,-178.1 -3.8,-201.1 -61.3,-317.9 -74.7,-151.3 -195.3,-268.1 -346.6,-339 -93.8,-44 -134.1,-51.7 -291.1,-51.7 -160.9,1.9 -195.3,7.7 -296.8,57.5 -145.5,70.9 -273.9,199.2 -344.7,344.7 -49.8,101.5 -55.5,136 -57.5,296.8 0,157 7.7,197.2 49.8,289.2 90,189.6 245.1,327.5 444.3,392.6 49.8,17.2 141.7,24.9 243.2,21.1 137.9,-5.8 180,-15.4 277.7,-65.2 z"
           id="path8"
           style="fill:#ffffff" />
      </g>
    </g>
  </g>
</svg>
