<svg xmlns="http://www.w3.org/2000/svg" width="24" height="24"><path d="M0 0h24v24H0z" fill="none"/><path d="M21.076 11.816v7.416c0 1.092-.974 1.971-2.183 1.971H5.107c-1.21 0-2.183-.879-2.183-1.97v-7.417zM6.651 3.967c-2.431.673-3.625 3.201-3.66 6.71H21.01c-.035-3.509-1.23-6.037-3.662-6.71z"/><path fill="#fff" d="M4.411 9.051h15.178v.915H4.411z"/><g fill="#fff"><path d="M12.62 12.898c-.132.038-.154.074-.154.265 0 .193-.021.226-.198.287a2.214 2.214 0 0 0-.22.092.547.547 0 0 1-.132.052.57.57 0 0 1-.153-.117c-.15-.14-.195-.155-.301-.1a1.512 1.512 0 0 0-.394.37c-.104.15-.097.197.053.352.07.072.119.14.119.16 0 .022-.02.078-.044.125a2.201 2.201 0 0 0-.09.22c-.07.193-.076.199-.261.199-.166 0-.258.034-.28.103-.072.248-.054.638.034.74.04.046.053.05.22.055.202.007.23.022.26.137.01.042.05.143.09.226.038.083.07.167.07.187 0 .022-.05.09-.117.159-.102.106-.117.13-.117.191 0 .087.054.171.215.336.146.15.265.229.343.229.048 0 .082-.022.178-.114a.998.998 0 0 1 .152-.126.484.484 0 0 1 .18.057c.083.038.193.083.243.1.13.043.15.075.15.26 0 .167.015.207.088.247.083.041.343.064.51.043.26-.033.286-.058.286-.287 0-.19.016-.216.166-.27a3.54 3.54 0 0 0 .243-.102c.078-.038.143-.056.163-.048a.889.889 0 0 1 .153.126c.134.128.168.137.29.076.105-.054.376-.33.426-.435.036-.077.038-.088.015-.144a.724.724 0 0 0-.128-.159c-.062-.058-.101-.114-.101-.137 0-.022.027-.097.06-.171.035-.074.077-.175.093-.228.043-.135.061-.146.267-.153.166-.005.18-.009.218-.052.083-.096.106-.516.043-.715-.032-.097-.108-.131-.294-.131a.568.568 0 0 1-.167-.016.672.672 0 0 1-.083-.175 2.644 2.644 0 0 0-.1-.237.389.389 0 0 1-.037-.113c0-.022.05-.092.117-.163.146-.155.153-.202.047-.359a1.48 1.48 0 0 0-.374-.355c-.113-.067-.166-.052-.315.092a.549.549 0 0 1-.15.117.55.55 0 0 1-.133-.052 2.256 2.256 0 0 0-.22-.092c-.175-.061-.199-.094-.199-.282 0-.178-.016-.216-.105-.254-.093-.04-.503-.05-.625-.016zm.557 1.375c.25.06.525.28.637.514.202.41.131.865-.183 1.181a.99.99 0 0 1-1.163.206 1.015 1.015 0 0 1-.29-1.626c.272-.275.613-.37.999-.275z"/><path d="M9.005 15.31c-.14.016-.357.07-.462.113a.25.25 0 0 0-.092.074c-.029.044-.029.06-.01.163a.44.44 0 0 1 .012.151.704.704 0 0 1-.159.152 2.5 2.5 0 0 0-.24.218c-.104.112-.14.123-.278.074a.484.484 0 0 0-.115-.027c-.094 0-.217.218-.292.521-.072.281-.06.321.124.391.105.04.128.058.15.109a.364.364 0 0 1 .025.122c0 .076.042.282.08.388.037.103.025.143-.082.247-.122.12-.12.172.006.352.117.166.343.388.422.413.067.024.133-.002.196-.072a.314.314 0 0 1 .096-.067c.054-.022.067-.022.144.015.132.06.32.12.41.135.119.016.153.052.187.198.027.112.038.128.092.157.05.024.089.03.172.02.28-.027.54-.1.615-.171.047-.044.054-.103.027-.22-.024-.101.005-.166.104-.233.046-.033.156-.126.242-.21.175-.167.168-.165.36-.11.077.022.095.02.136-.003.092-.05.247-.43.269-.66.014-.146-.01-.186-.144-.227-.137-.044-.165-.083-.19-.28a2.119 2.119 0 0 0-.058-.278c-.055-.176-.05-.205.058-.31.08-.076.096-.1.094-.155 0-.148-.382-.58-.55-.622-.038-.01-.067.005-.152.074-.126.103-.164.106-.339.027a1.761 1.761 0 0 0-.27-.092c-.174-.042-.22-.083-.24-.21-.024-.16-.101-.198-.348-.167zm.501 1.078a.896.896 0 0 1 .615.84.882.882 0 0 1-1.715.289 1.001 1.001 0 0 1 0-.575.906.906 0 0 1 .588-.563c.114-.036.384-.03.512.01zM15.031 16.807c-.166.016-.202.045-.202.158 0 .109-.032.152-.153.208a1.33 1.33 0 0 0-.204.119.65.65 0 0 1-.12.072.593.593 0 0 1-.115-.049c-.09-.045-.1-.047-.144-.021-.106.06-.326.456-.301.54a.33.33 0 0 0 .1.096l.09.065v.267c0 .294.001.293-.12.352-.08.041-.088.097-.034.233.06.146.206.359.267.39.041.02.058.018.137-.024a.52.52 0 0 1 .112-.045c.013 0 .072.032.132.07.06.04.155.094.212.121.114.056.141.096.141.215 0 .128.04.144.357.144h.26l.043-.05c.033-.038.044-.073.044-.138 0-.097.021-.126.133-.17.038-.017.125-.066.191-.11a.7.7 0 0 1 .143-.082c.01 0 .061.02.112.045.054.029.104.041.126.036.052-.018.168-.171.25-.335.102-.204.096-.24-.039-.322-.036-.021-.07-.054-.074-.07a2.501 2.501 0 0 1-.005-.283l.001-.25.064-.04c.155-.1.157-.121.043-.35-.083-.166-.211-.325-.263-.325a.408.408 0 0 0-.112.047c-.096.054-.123.049-.245-.04a1.219 1.219 0 0 0-.177-.103c-.14-.065-.148-.075-.148-.185 0-.15-.03-.17-.307-.195-.034-.004-.123 0-.195.009zm.438.858a.73.73 0 0 1 .31.312c.046.09.051.118.051.28 0 .168-.003.19-.058.3a.684.684 0 0 1-.326.319c-.088.041-.126.048-.274.048-.152-.001-.184-.007-.28-.054a.725.725 0 0 1-.324-.324c-.047-.096-.053-.129-.055-.28 0-.148.008-.186.047-.272a.696.696 0 0 1 .419-.37.724.724 0 0 1 .229-.02c.13.005.17.014.261.061z"/></g></svg>